<?xml version="1.0" encoding="UTF-8"?>
<!-- Created with Inkscape (http://www.inkscape.org/) -->
<svg width="512" height="512" version="1.1" viewBox="0 0 135.47 135.47" xmlns="http://www.w3.org/2000/svg">
 <g transform="translate(-5.5389 -19.074)" stroke="#fa4a4f" stroke-linecap="round" stroke-linejoin="round">
  <g fill="none" stroke-width="5.5562">
   <path d="m52.534 76.911 0.08547-7.7138-8.6689 7.4303-9.8466-10.609 20.601-18.634 11.69-0.06053 8.1379 8.0916 10.164 0.09534 7.5842-7.8896 9.3467 0.05153" style="paint-order:normal"/>
   <path d="m76.488 117.88 26.565-0.10002-0.22264-40.833 8.6326 8.6331 14.229-14.704-11.974-11.544"/>
   <path d="m82.859 64.793s-7.9886-7.1213-14.945 3.8214c-7.8023 12.274-11.467 16.282-20.205 19.221-28.461 9.5745-41.151 12.372-13.776 18.019 17.258 3.5602 21.751 4.185 21.457 18.091-0.62498 29.604 9.3937-0.94543 11.883-7.6427 3.3973-9.1388 1.3607-12.438 19.906-20.044 10.564-4.3323 7.4387-13.596 7.4387-13.596s-3.1087 10.409-17.457 8.9949c-2.4089-0.23744 3.4985-6.9278 3.4985-6.9278l-5.2599-6.1542c-1.8098 1.9918-3.029 2.3297-3.4228 0.35687 0 0 0.92538-13.434 10.881-14.14"/>
  </g>
  <path d="m61.905 88.893 6.8679 7.5143 4.0538-3.7951c0.6124-0.57331-6.7597-7.4586-6.7597-7.4586z" fill="#fa4a4f" stroke-width=".92604"/>
  <path d="m111.44 44.075c0.0787-0.55662 17.798-13.075 17.798-13.075s-9.4317 21.074-10.199 20.649c-0.69867-0.38693-5.0164-4.8538-6.0314-5.9229z" fill="#fa4a4f" stroke-width="2.3812"/>
  <g fill="none" stroke-width="1.0583">
   <path d="m52.179 101.19 60.95-54.854"/>
   <path d="m54.503 102.6 60.104-54.596"/>
   <path d="m56.468 103.98 60.409-54.712"/>
  </g>
  <path d="m52.637 96.245c0.3739 0.60721 8.3832 9.1588 8.3832 9.1588l4.9197-4.716-8.0093-9.0576z" fill="#fa4a4f" stroke-width=".92604"/>
 </g>
</svg>
